<svg width="620" height="388" viewBox="0 0 620 388" fill="none" xmlns="http://www.w3.org/2000/svg">
<g filter="url(#filter0_d)">
<rect x="20" y="15" width="580" height="348" rx="12" fill="#E4002B"/>
</g>
<mask id="mask0" mask-type="alpha" maskUnits="userSpaceOnUse" x="20" y="15" width="580" height="348">
<rect x="20" y="15" width="580" height="348" rx="12" fill="white"/>
</mask>
<g mask="url(#mask0)">
<g style="mix-blend-mode:multiply" opacity="0.15">
<path d="M27.877 303.744C28.1515 315.199 34.8141 345.489 73.4425 374.213C89.5376 386.19 96.9239 391.582 99.045 393.048V393.147C100.118 393.893 93.3306 393.719 91.484 393.893C88.4646 394.191 78.1587 393.247 69.924 394.763C62.4878 396.129 63.486 397.918 62.7623 403.261C62.1884 407.51 62.7373 414.243 62.5127 419.983C62.2882 425.723 61.9638 429.798 64.4093 432.556C66.8048 435.29 68.327 435.712 78.533 435.091C88.24 434.494 115.115 434.47 118.359 433.824C122.526 432.979 121.853 434.47 119.457 439.588C115.34 448.36 101.965 488.589 81.1532 526.805C78.2336 532.172 86.4433 529.637 93.4304 532.992C106.082 539.08 105.658 540.769 109.001 534.433C112.595 527.55 130.861 484.762 133.681 471.568C134.055 469.853 134.779 468.362 135.078 470.946C135.278 472.81 135.552 526.879 134.03 543.925C133.955 544.819 134.18 545.764 134.804 546.41C135.727 547.354 137.099 547.727 138.272 548C138.297 548 138.297 548 138.297 548C144.585 545.913 152.196 544.372 158.659 545.441C159.233 545.366 159.782 545.242 160.306 545.093C160.656 544.795 160.955 544.472 161.18 544.049C161.679 543.155 161.953 542.111 162.178 541.117C162.203 541.043 162.203 540.968 162.228 540.893C162.552 539.452 162.802 538.011 162.951 536.545C163.051 535.675 163.101 534.806 163.151 533.936C163.226 532.818 163.276 531.675 163.301 530.557C163.351 529.19 163.376 527.848 163.401 526.482C163.426 524.916 163.426 523.351 163.426 521.761C163.426 520.021 163.401 518.257 163.376 516.493C163.351 514.579 163.301 515.226 163.251 513.312C163.201 511.275 163.126 509.212 163.026 507.175C162.926 505.013 162.827 502.851 162.702 500.689C162.577 498.453 162.427 496.192 162.278 493.956C162.103 491.645 161.928 489.334 161.729 487.048C161.529 484.712 161.304 482.376 161.055 480.016C160.805 477.655 160.531 475.32 160.231 472.959C159.932 470.623 159.608 468.288 159.283 465.952C158.934 463.641 158.585 461.355 158.16 459.044C157.761 456.808 157.337 455.839 156.888 453.603C156.439 451.441 155.964 449.304 155.44 447.167C154.941 445.129 154.392 443.092 153.818 441.054C153.344 439.439 152.845 437.849 152.321 436.259C152.221 436.01 151.797 433.823 151.847 433.525C152.022 432.73 153.02 433.302 154.093 433.103C154.093 433.103 154.617 433.004 154.891 432.954C161.804 432.034 173.831 432.656 176.551 432.755C179.221 432.83 192.896 434.122 196.764 434.494C200.582 434.867 205.223 435.737 205.023 424.182C204.973 421.101 204.949 419.263 204.973 416.38C204.973 415.983 204.973 415.585 204.973 415.212C204.973 414.492 204.998 413.771 204.998 413.075C204.998 412.653 204.998 412.255 205.023 411.858C205.023 411.46 205.023 411.063 205.048 410.69C205.048 410.342 205.073 409.969 205.073 409.646C205.098 409.025 205.098 408.429 205.123 407.882C205.123 407.708 205.123 407.559 205.148 407.385C205.148 406.963 205.173 406.59 205.198 406.242C205.198 406.068 205.223 405.894 205.223 405.72C205.248 405.397 205.248 405.124 205.273 404.876C205.273 404.801 205.273 404.677 205.298 404.627C205.323 404.279 205.348 403.907 205.373 403.484C205.473 400.676 205.098 395.508 199.733 394.116C193.545 392.576 182.69 392.203 172.933 393.048C171.56 393.172 171.261 393.048 171.685 392.675V392.576C173.781 391.085 187.905 383.308 204.025 368.945C221.767 353.092 230.252 344.669 235.667 333.189C235.667 333.189 255.105 295.669 254.107 263.888C253.908 257.477 254.956 257.999 258.948 258.123C260.146 258.148 264.738 257.825 267.208 256.21C275.443 254.347 282.729 226.318 282.729 226.318C282.729 226.318 295.106 183.778 298.101 166.385C300.771 150.904 300.147 141.86 290.664 137.263L289.067 136.368C288.344 135.971 287.994 135.126 288.219 134.356C288.394 133.71 288.593 132.914 288.693 132.343C293.335 116.316 301.619 96.0152 299.723 87.7905C299.398 85.43 297.377 84.6597 296.678 84.1876C295.705 83.5415 292.037 79.4665 291.014 76.5841C290.864 76.1617 290.814 75.7393 290.764 75.292C288.144 45.0271 277.339 7.03458 245.174 -26.0381C245.124 -26.0629 242.953 -28.0508 241.63 -29.2435C238.886 -31.7034 235.342 -34.7846 231.3 -37.816C222.74 -44.202 215.903 -49.097 201.804 -56.1042C200.706 -56.626 190.126 -61.4216 174.505 -65.2482C173.033 -65.6458 171.56 -66.0185 170.088 -66.3664C167.792 -66.913 164.199 -67.5591 160.107 -68.1306C150.475 -69.6463 139.769 -70.4414 128.64 -69.7457C127.318 -69.6712 125.77 -69.5966 125.346 -69.5966C124.672 -69.5966 123.974 -69.5469 123.3 -69.5221C122.551 -69.4972 121.803 -69.4724 121.029 -69.4475C118.684 -69.3233 115.564 -68.9754 112.32 -68.5281C107.055 -67.7579 101.416 -66.7142 97.947 -65.9191C94.0543 -64.9749 88.814 -63.8816 82.2511 -62.018C79.5561 -61.2228 76.8362 -60.4029 74.1412 -59.5332C73.3926 -59.2847 72.619 -59.0611 71.8704 -58.8126C68.9508 -57.8684 66.0312 -56.8744 63.0617 -55.806C60.9157 -55.0605 51.8076 -51.1346 49.8113 -50.2152C48.8631 -49.7679 47.5405 -49.2213 46.1431 -48.6498C39.7051 -46.6122 38.3576 -42.9099 38.133 -40.8972C37.9833 -39.5802 37.6838 -38.2881 37.1348 -37.0954C27.877 -17.4904 6.09241 -15.6019 -2.56653 -15.1547C-4.83732 -15.0553 -6.83361 -14.7074 -6.10995 -12.5208C-4.26338 -6.90515 5.91775 3.60555 12.1562 5.51884C12.0564 6.41338 6.81607 7.55638 5.71811 7.82971C3.19779 8.47576 -7.10809 7.58123 -7.63212 7.68062C-7.68203 7.68062 -7.70698 7.68062 -7.75689 7.70547C-19.4602 8.67454 -23.0535 16.6259 -24.1016 20.3779C-24.426 21.5458 -24.2513 22.813 -23.5775 23.807C-21.0073 27.7329 -18.2624 30.9135 -16.2162 36.1067C-16.1912 36.1564 -16.1663 36.2309 -16.1413 36.2806C-15.6173 37.6473 -15.1182 39.1382 -14.694 40.8278C-14.4445 43.0393 -12.6728 45.3502 -14.9186 49.6986C-18.9112 57.4014 -28.8927 59.8117 -30.3899 67.4649C-32.511 78.3483 -28.743 85.4797 -24.6006 103.47C-21.7559 115.794 -18.7116 128.541 -16.5156 134.331C-16.3909 134.629 -16.5905 134.952 -16.8899 135.002C-17.7633 135.176 -19.2855 135.474 -19.8095 135.648C-25.5988 137.934 -27.4204 142.481 -28.0692 151.327C-29.5165 170.932 -14.9935 201.172 -10.4768 227.063C-8.95466 235.81 -4.91215 249.824 1.82535 255.539C3.37248 256.856 6.61644 257.701 8.63769 258.049C13.9029 258.968 16.1737 255.639 16.4732 260.906C16.548 262 16.9223 264.957 16.9473 266.621C17.8706 285.282 27.877 303.744 27.877 303.744ZM36.9352 -7.62574C38.0831 -9.38995 40.8529 -11.9741 43.6478 -13.962C46.5673 -16.0244 60.8658 -26.709 74.1661 -30.7592C76.6365 -31.4798 77.2604 -31.8525 78.8325 -32.2252C80.8288 -32.747 82.5256 -37.0209 78.3584 -37.6421C73.9915 -38.2633 72.2197 -37.99 69.8991 -37.9154C67.5784 -37.8657 66.4555 -39.1081 68.1523 -40.922C69.8741 -42.7608 72.9434 -44.6244 78.3584 -46.7862C90.1864 -51.4824 111.172 -53.9921 120.954 -54.8618C133.731 -55.9551 135.278 -55.9054 143.562 -55.2842C151.348 -54.6878 157.437 -53.2466 160.331 -52.7497C174.979 -50.1158 191.873 -43.3571 206.87 -35.1573C214.78 -30.4859 222.391 -25.2926 229.478 -19.7764C250.988 -3.07855 275.667 28.6523 272.074 95.5182C271.65 103.42 270.702 107.793 270.177 109.706C269.628 111.645 267.058 114.949 265.711 110.576C261.269 96.2637 255.555 71.043 242.554 51.1397C240.757 48.3568 237.962 48.6301 238.237 51.5373C238.337 52.7549 238.935 65.5019 238.636 67.9867C236.54 84.4112 241.581 78.0253 249.017 95.6425C251.312 101.084 254.282 111.868 255.031 118.826C255.23 120.565 255.455 122.603 255.505 124.541C255.555 127.001 254.332 127.15 254.332 127.15C249.241 127.125 240.358 124.715 235.567 124.566C230.127 124.392 192.297 124.019 178.098 125.137C163.875 126.23 156.139 131.324 148.079 137.884C146.732 138.977 144.835 139.996 143.762 140.518C143.213 140.791 142.614 140.866 142.04 140.766C141.391 140.642 140.318 140.443 138.647 140.096C135.178 139.375 130.986 139.102 127.592 140.145C124.198 141.164 122.601 142.034 118.933 139.922C113.718 136.89 105.708 124.764 77.8094 124.541C61.9887 124.416 41.2522 124.193 29.0249 124.739C25.0822 124.913 23.011 125.361 22.0129 125.336C21.938 124.864 21.9131 124.243 21.9131 124.118C21.7135 101.929 36.2615 106.849 37.9084 101.084C42.0757 86.6972 43.0489 52.1337 68.2521 30.8886C80.3047 20.7507 86.5681 20.3282 97.7723 20.3282C109.825 20.3282 121.578 23.4591 127.592 26.416C132.358 28.7766 134.729 30.342 136.6 28.9505C138.472 27.5342 143.488 23.0118 145.559 21.4464C147.63 19.8561 146.856 17.3962 144.885 15.7811C142.988 14.2653 125.122 -8.14754 97.6975 -12.6699C91.4091 -13.7135 86.7677 -14.6577 81.0783 -14.6826C77.984 -14.8068 75.2641 -14.8068 68.0775 -13.9371C57.5719 -12.6699 43.8723 -6.85544 35.0387 -3.35188C34.5397 -3.87368 36.3862 -6.8306 36.9352 -7.62574ZM252.934 136.592C251.812 137.81 250.788 137.089 248.468 137.66C246.646 138.108 245.423 139.126 243.752 138.977C241.106 138.729 239.784 135.573 241.206 133.511C243.402 130.33 246.496 133.088 248.992 133.536C250.215 133.759 251.088 133.387 252.311 133.834C253.533 134.256 253.708 135.399 252.934 136.592ZM215.379 147.774C215.379 147.774 210.388 144.369 208.791 141.611C207.993 140.245 208.192 139.102 210.289 139.077C217.775 139.002 224.637 138.828 227.981 141.611C230.401 143.649 230.476 147.898 229.278 150.656C227.906 153.787 225.161 152.892 223.589 152.669C222.042 152.445 215.379 147.774 215.379 147.774ZM218.673 161.092C217.251 161.813 211.911 160.024 210.438 159.204C207.494 157.564 205.373 156.396 201.405 153.016C198.76 150.805 193.969 149.761 189.402 149.96C185.909 150.134 182.44 150.88 179.77 151.501C177.125 152.147 176.925 149.737 177.724 148.842C178.523 147.947 182.216 144.568 190.301 142.456C191.473 142.158 193.744 142.257 194.892 142.382C198.261 142.754 202.303 144.991 205.198 147.798C208.093 150.631 213.957 155.601 217.151 157.539C218.673 158.408 222.042 159.378 218.673 161.092ZM103.212 217C104.061 218.541 104.335 221.125 104.086 222.193C103.836 223.51 99.2197 225.225 95.3518 219.485C91.5089 213.795 93.3056 206.788 95.6014 204.029C99.2197 199.606 104.759 202.812 103.961 204.452C101.191 210.142 102.439 215.459 103.212 217ZM49.8862 153.315C50.8095 152.569 51.2087 152.569 54.303 150.88C56.4989 149.662 59.0193 148.171 61.5645 146.531C66.156 143.549 74.8648 140.468 78.5829 140.518C81.253 140.543 85.9193 141.711 88.4147 144.394C91.0099 147.202 91.7086 150.482 88.3398 149.91C84.996 149.339 81.4277 148.444 74.9647 149.91C67.753 151.55 62.8372 154.309 59.3437 155.849C55.7753 157.489 52.1819 157.887 50.9841 157.837C49.8363 157.738 46.5424 155.998 49.8862 153.315ZM45.145 146.879C41.7014 149.041 38.3576 151.55 35.7874 153.215C32.6681 155.278 28.2763 153.315 29.5489 148.941C30.1728 146.829 33.1922 141.388 38.2827 140.419C38.9565 140.294 41.4768 139.797 43.5729 139.549C46.0433 139.276 48.6635 139.077 49.986 139.002C53.5793 138.853 53.9786 141.711 51.5331 143.202C49.9361 144.22 47.4158 145.438 45.145 146.879ZM-12.2985 75.3665C-9.30402 67.2661 -3.83915 60.3832 -0.096096 55.4881C3.32256 51.0403 1.70057 45.1514 -0.0461884 39.8836C-1.16911 35.0382 -4.31329 30.019 -4.78741 28.6772C-5.13677 27.7578 -5.13674 26.9875 -4.8373 26.3415C-4.61271 26.1924 -4.43805 26.0681 -4.18851 25.919L2.42421 25.3475C21.3142 22.9373 37.9833 16.3277 42.999 13.5199C45.4694 12.1284 48.1145 11.0599 50.7845 10.1406C53.9287 9.07211 57.1976 8.00365 60.4666 7.58123C62.937 7.18366 65.8566 6.78609 68.3769 6.51276C72.1199 6.09035 78.009 8.69939 76.7114 9.46968C73.5423 11.3581 58.8695 14.7374 45.9685 30.0935C38.0581 39.486 36.2115 45.3005 33.5415 49.624C30.8465 53.9724 28.6755 54.9912 24.8826 58.2711C23.036 59.8614 19.243 63.1413 17.3964 68.4091C15.5249 73.7266 8.31331 92.2383 7.36507 121.633C7.26526 125.038 6.66636 128.641 3.42237 129.883H3.39741C0.727362 130.951 -1.41865 132.716 -1.89277 130.802C-3.61458 124.342 -7.5822 110.427 -9.22914 101.606C-9.75317 98.823 -10.377 96.0649 -11.0258 93.3316C-12.8973 85.8524 -13.7208 79.1683 -12.2985 75.3665ZM3.5721 214.565C-1.8179 210.987 -1.51845 206.315 -2.89091 201.719C-5.81049 191.953 -8.92971 180.2 -11.6247 170.186C-13.2717 164.148 -13.6709 149.96 -5.4362 149.96C-1.29389 149.96 1.82534 151.252 3.14789 155.153C6.09243 163.825 0.527748 162.31 1.97506 172.547C2.99817 179.803 4.37062 186.934 6.66636 199.234C7.71442 204.899 9.58592 218.541 4.57022 215.236L3.5721 214.565ZM24.2837 138.828C22.6118 139.002 21.1894 137.983 19.3428 137.586C17.2218 137.114 15.9242 137.76 15.0508 136.617C14.2773 135.424 14.427 134.281 15.6247 133.834C16.8475 133.387 17.7209 133.71 18.9436 133.486C21.439 133.014 24.4833 130.181 26.7291 133.337C28.1765 135.35 26.9288 138.53 24.2837 138.828ZM28.1765 198.513C27.4278 195.308 28.8502 190.512 36.4611 195.357C37.6838 196.128 41.2522 197.743 45.1949 198.886C47.5904 199.582 49.1625 198.563 49.8363 196.823C50.535 195.109 52.5063 191.655 49.1376 190.015C45.7688 188.35 37.4592 186.909 32.718 175.255C31.8696 173.168 33.3169 170.783 34.6395 170.162C35.987 169.565 37.6589 169.863 39.206 171.329C40.7531 172.771 44.072 175.951 47.0415 176.075C49.7864 176.2 50.2355 175.106 50.7845 174.46C53.0803 171.901 59.668 162.285 73.3427 163.95C78.9822 164.645 84.1726 165.888 86.0691 166.037C87.4166 166.136 91.1845 166.285 94.7529 165.614C98.8453 164.844 104.959 163.577 101.965 167.031C99.5441 169.814 97.4978 170.982 99.6439 174.013C99.7437 174.162 99.8685 174.311 99.9683 174.46C101.89 177.144 101.94 180.747 99.9932 183.406L99.7686 183.753C96.7493 187.655 90.5108 192.152 77.5848 192.972C71.6957 193.345 71.3214 193.121 71.1967 196.476C71.1468 197.768 71.1717 198.439 71.3464 199.358C71.6957 201.048 72.7937 201.743 76.8611 201.992C79.8306 202.166 85.2456 201.594 85.2456 201.594C86.5681 201.197 88.1402 202.042 87.2918 203.135C87.167 203.309 86.618 204.104 86.5182 204.228C83.5987 208.005 82.6753 211.434 82.4009 213.496C82.1763 215.236 81.1532 216.801 79.606 217.596C79.5811 217.596 79.5561 217.621 79.5561 217.621C77.6596 218.59 70.0488 220.23 64.0599 225.15C58.096 230.07 45.6191 234.145 40.2541 228.082C34.8641 222.094 30.4972 208.577 28.1765 198.513ZM84.3223 340.743C73.6421 341.066 45.694 324.269 33.5166 276.635C30.3474 264.385 38.108 254.421 42.9241 252.731C45.7688 251.688 47.266 251.365 48.2143 251.241C49.2124 251.116 54.0784 251.141 53.9037 256.608C53.7291 261.031 57.4222 298.004 67.1292 311.373C69.5248 314.677 71.7456 314.802 72.8686 311.894C73.8917 309.161 75.5636 305.658 76.1125 304.316C76.5118 303.347 80.0303 297.98 81.0783 302.055C83.2992 310.702 88.5145 328.518 90.6855 333.115C94.3038 340.743 88.3399 340.619 84.3223 340.743ZM91.0349 263.515C77.0857 263.342 70.6227 258.173 69.6246 256.608C68.6763 255.117 70.2734 253.949 71.7207 253.477C75.0146 252.433 80.8787 249.501 83.2493 247.687C85.6448 245.923 92.2077 241.848 95.5265 239.711C97.0986 238.692 106.057 234.816 111.297 238.444C119.158 243.91 126.519 247.563 139.994 246.743C148.653 246.221 148.453 239.264 155.515 237.052C161.878 235.065 163.101 233.499 165.097 232.331C167.668 231.809 169.564 231.163 172.359 233.772C175.902 237.052 177.175 239.637 181.267 244.233C186.882 250.52 193.046 253.477 194.967 253.85C196.863 254.247 198.236 255.788 198.261 256.409C198.286 257.03 197.487 258.993 191.848 260.608C172.983 266 152.571 262.546 142.065 258.347C136.725 256.235 131.535 255.639 125.696 258.496C119.782 261.403 104.061 263.665 91.0349 263.515ZM161.529 275.095C158.31 276.262 149.027 278.424 144.536 278.698C139.994 278.946 125.621 279.915 123.225 279.816C120.256 279.642 116.263 278.201 113.019 275.244C112.37 274.647 111.647 272.585 114.317 272.535C119.257 272.436 127.567 269.827 156.239 272.237C159.308 272.486 160.755 272.61 161.479 272.684C162.203 272.759 164.723 273.976 161.529 275.095ZM284.027 164.72C280.259 184.722 276.042 194.736 273.322 207.086C270.502 219.907 264.962 238.667 259.597 239.14C254.157 240.755 251.986 234.518 248.493 239.14C246.422 241.898 244.8 245.526 242.953 247.886C241.78 249.427 240.607 252.856 240.582 254.719C240.582 258.322 240.383 269.976 237.139 285.282C232.248 308.341 223.364 325.163 214.131 335.773C196.439 356.074 179.87 359.354 177.899 360.398C175.353 361.74 171.535 360.944 170.263 360.348C168.99 359.777 168.017 358.261 165.821 356.124C163.575 354.037 162.777 357.217 162.702 358.037C162.602 358.807 163.85 368.399 161.379 372.747C156.089 382.09 150.974 382.91 148.129 394.564C147.181 398.49 147.829 404.428 143.113 401.745C131.585 395.185 115.065 377.419 111.622 360.199C110.574 354.956 111.547 349.117 114.766 339.128C116.612 333.264 117.935 326.754 117.935 323.002C117.935 316.342 115.315 310.702 117.935 310.13C122.776 309.062 124.972 321.535 127.243 320.243C131.16 318.007 128.241 304.813 128.241 304.813C128.241 304.813 126.644 301.061 119.782 299.47C115.839 298.551 114.591 295.619 118.808 293.557C121.952 292.016 125.596 290.003 129.863 290.625C158.31 294.65 166.495 288.935 177.974 285.854C180.244 285.257 181.567 284.984 183.339 285.829C185.085 286.649 189.827 289.208 190.775 291.618C191.748 294.004 190.75 303.421 192.247 310.478C193.794 317.585 198.785 311.124 200.033 308.316C201.305 305.533 202.578 298.651 202.852 296.911C203.127 295.172 204.599 287.866 207.219 285.68C212.435 281.381 214.256 275.716 215.105 273.504C215.978 271.293 217.326 264.46 217.076 254.471C216.826 244.507 215.03 243.438 212.609 241.277C210.214 239.14 207.344 239.562 201.255 233.996C195.815 229.026 191.349 221.001 187.431 215.956C183.488 210.912 176.95 205.52 169.489 203.706C162.053 201.917 165.147 208.751 165.547 210.664C165.846 212.006 167.618 218.068 165.122 220.056C162.702 222.044 147.655 232.108 134.255 228.629C118.284 224.479 112.77 215.609 112.42 207.061C112.196 200.998 115.115 195.159 118.733 188.201C120.855 184.151 121.728 177.367 122.576 170.857C123.25 165.664 124.647 158.135 125.795 155.452C126.619 153.513 128.54 151.426 132.882 151.675C137.174 151.923 139.969 154.035 140.768 157.713C143.537 170.509 148.079 173.74 149.601 174.783C151.148 175.827 154.043 173.74 155.191 172.994C156.339 172.249 159.233 169.317 158.335 167.751C156.938 165.316 156.189 163.85 155.865 162.434C155.341 159.999 158.385 160.297 159.009 160.794C164.024 164.72 168.741 165.068 177.4 166.509C192.547 169.019 194.717 163.477 205.098 165.267C206.446 165.49 209.016 166.633 209.839 168.174C210.538 169.516 211.786 172.572 213.058 173.094C214.331 173.591 217.4 173.765 218.997 174.063C221.193 174.435 225.136 174.187 224.487 178.237C222.79 189.096 210.214 192.078 204.325 193.096C201.904 193.519 200.781 193.717 200.382 194.065C199.109 195.184 199.059 198.588 200.532 200.774C201.58 202.315 206.321 202.414 212.834 201.172C219.621 199.88 226.134 196.625 231.3 188.624C236.764 180.15 239.759 161.514 240.383 158.036C241.007 154.557 242.404 148.743 244.325 147.55C246.222 146.357 255.08 143.674 256.328 143.897C257.825 144.146 258.898 144.866 259.597 148.271C260.296 151.724 258.998 172.249 258.973 175.355C258.923 178.66 260.645 178.635 261.593 178.188C263.665 177.243 269.179 173.591 270.427 169.342C271.35 166.211 268.705 161.639 270.028 157.29C272.099 150.532 274.145 148.718 275.567 148.867C284.201 149.687 285.973 153.464 283.927 164.397L284.027 164.72Z" fill="#202124"/>
</g>
<path d="M565.271 46.6933L563.978 52.4084C563.949 52.5415 563.875 52.6608 563.767 52.7464C563.66 52.832 563.525 52.8787 563.387 52.8787H561.549C561.466 52.8788 561.384 52.8621 561.307 52.8297C561.231 52.7972 561.163 52.7498 561.106 52.6902C561.049 52.6307 561.006 52.5604 560.978 52.4835C560.95 52.4067 560.938 52.3251 560.944 52.2437C560.944 52.1694 560.944 52.1393 560.944 52.1384C561.033 50.2738 559.835 48.8815 557.125 48.8815C552.619 48.8815 549.342 52.5156 548.912 57.288C548.469 62.2166 551.976 65.0811 556.827 65.0802C558.712 65.0856 560.588 64.8106 562.389 64.2646C562.489 64.2334 562.596 64.2284 562.699 64.25C562.802 64.2716 562.897 64.319 562.976 64.3876C563.055 64.4562 563.114 64.5437 563.148 64.6415C563.181 64.7394 563.189 64.8441 563.169 64.9457L562.595 67.8986C562.572 68.0218 562.515 68.1365 562.431 68.2306C562.346 68.3246 562.238 68.3946 562.116 68.433C561.122 68.7444 558.329 69.4763 554.055 69.4763C543.901 69.4763 539.781 63.7377 540.418 57.8873C540.99 52.6774 544.498 45 558.331 45C560.507 44.9989 562.673 45.2904 564.768 45.8664C564.944 45.914 565.095 46.0266 565.188 46.1807C565.282 46.3348 565.312 46.5184 565.271 46.6933ZM507.537 45.8796L507.201 47.3697C507.165 47.5302 507.192 47.6982 507.276 47.8401C507.36 47.982 507.496 48.0875 507.656 48.1355C508.241 48.3575 508.371 48.9088 507.861 49.3218L499.365 56.2607L500.824 49.7216C501.073 48.7188 501.883 48.3105 502.397 48.1421L502.48 48.1167C502.591 48.083 502.69 48.0212 502.769 47.9374C502.847 47.8536 502.902 47.7509 502.927 47.6397L503.275 46.0903C503.295 46.0042 503.294 45.9149 503.273 45.829C503.253 45.7432 503.213 45.663 503.156 45.5945C503.1 45.5259 503.028 45.4707 502.947 45.4329C502.866 45.3952 502.777 45.3758 502.688 45.3763H491.734C491.584 45.3764 491.438 45.4268 491.321 45.5191C491.204 45.6115 491.122 45.7403 491.09 45.8843L490.736 47.4535C490.701 47.6081 490.727 47.7697 490.806 47.9073C490.886 48.0448 491.015 48.1485 491.167 48.1985L491.276 48.2352C491.963 48.4996 492.759 49.0951 492.424 50.6605L489.807 62.4085C489.123 65.6173 488.017 66.273 486.961 66.3925H486.927C486.79 66.4086 486.661 66.466 486.558 66.557C486.455 66.6479 486.384 66.7679 486.353 66.9005L486.014 68.4057C485.994 68.4964 485.995 68.5903 486.017 68.6805C486.039 68.7707 486.081 68.855 486.14 68.9271C486.2 68.9993 486.275 69.0575 486.36 69.0975C486.445 69.1375 486.538 69.1583 486.633 69.1583H498.147C498.282 69.1582 498.412 69.1136 498.518 69.0317C498.624 68.9498 498.699 68.8354 498.73 68.7067L499.128 66.9457C499.16 66.8068 499.139 66.6614 499.071 66.5359C499.003 66.4103 498.892 66.3128 498.757 66.2608L498.682 66.2316C498.099 65.9993 497.304 65.5045 497.507 64.5712L498.847 58.5636C503.437 66.7961 504.953 69.1677 510.46 69.1668H515.429C515.566 69.1668 515.698 69.1213 515.804 69.0376C515.91 68.954 515.984 68.8373 516.014 68.7067L516.363 67.1809C516.384 67.0893 516.384 66.9942 516.364 66.9025C516.343 66.8108 516.302 66.7248 516.243 66.6506C516.185 66.5764 516.11 66.516 516.025 66.4736C515.939 66.4313 515.846 66.4081 515.75 66.4057C514.506 66.3869 513.896 66.1037 512.659 64.5402L506.278 56.0537L514.571 49.2804C515.683 48.4253 517.041 48.1854 517.792 48.0866L517.868 48.0791C517.996 48.0672 518.117 48.0158 518.214 47.9321C518.31 47.8485 518.377 47.7369 518.406 47.6134L518.745 46.1082C518.765 46.0205 518.765 45.9294 518.745 45.8416C518.725 45.7539 518.685 45.6717 518.628 45.6014C518.571 45.531 518.498 45.4742 518.416 45.4352C518.333 45.3963 518.243 45.3761 518.151 45.3763H508.175C508.026 45.377 507.882 45.4271 507.767 45.5185C507.651 45.6099 507.57 45.7372 507.537 45.8796ZM538.217 52.4055H540.157C540.294 52.4055 540.427 52.3595 540.535 52.275C540.642 52.1905 540.717 52.0726 540.746 51.9408L542.066 46.0979C542.085 46.011 542.084 45.9211 542.063 45.8346C542.042 45.7481 542.002 45.6674 541.945 45.5982C541.888 45.529 541.817 45.4731 541.735 45.4348C541.654 45.3964 541.564 45.3764 541.474 45.3763H521.075C520.924 45.3762 520.778 45.4267 520.661 45.5192C520.544 45.6117 520.462 45.7409 520.429 45.8852L520.078 47.4459C520.045 47.5937 520.067 47.7482 520.142 47.8807C520.216 48.0132 520.337 48.1145 520.482 48.1656L520.551 48.1891C521.221 48.4412 522.157 49.08 521.75 50.6501L517.751 68.4471C517.731 68.5336 517.732 68.6232 517.752 68.7095C517.773 68.7957 517.813 68.8764 517.869 68.9454C517.926 69.0145 517.997 69.0702 518.078 69.1085C518.16 69.1469 518.249 69.1668 518.339 69.1668H527.514C527.652 69.1668 527.785 69.1208 527.892 69.0365C527.999 68.9522 528.073 68.8346 528.103 68.703L528.502 66.9259C528.531 66.7989 528.514 66.6661 528.455 66.5498C528.395 66.4336 528.297 66.3412 528.176 66.2881L528.087 66.2476C527.505 65.9654 526.639 65.3219 526.929 64.0764C526.961 63.909 527.832 60.0519 527.832 60.0519H535.634C535.773 60.0517 535.907 60.0049 536.014 59.9193C536.122 59.8337 536.196 59.7145 536.225 59.5815L536.959 56.3322C536.979 56.245 536.978 56.1547 536.958 56.0677C536.937 55.9808 536.897 55.8995 536.84 55.8299C536.783 55.7603 536.711 55.7041 536.629 55.6655C536.547 55.6269 536.458 55.6069 536.367 55.6069H528.833L530.239 49.3039L535.504 49.2973C537.205 49.2973 537.724 50.1703 537.626 51.6595C537.626 51.6595 537.626 51.6783 537.617 51.7385C537.607 51.822 537.616 51.9064 537.641 51.9865C537.667 52.0665 537.709 52.1404 537.766 52.2033C537.823 52.2662 537.892 52.3167 537.97 52.3515C538.047 52.3864 538.132 52.4048 538.217 52.4055Z" fill="white"/>
<path d="M570 48.5336C569.989 49.0364 569.778 49.5148 569.412 49.8664C569.046 50.218 568.555 50.4149 568.043 50.4149C567.531 50.4149 567.04 50.218 566.674 49.8664C566.308 49.5148 566.097 49.0364 566.086 48.5336C566.097 48.0309 566.308 47.5525 566.674 47.2009C567.04 46.8492 567.531 46.6523 568.043 46.6523C568.555 46.6523 569.046 46.8492 569.412 47.2009C569.778 47.5525 569.989 48.0309 570 48.5336ZM569.713 48.5336C569.719 48.3151 569.679 48.0976 569.598 47.8942C569.516 47.6907 569.394 47.5053 569.239 47.3489C569.084 47.1924 568.898 47.0681 568.693 46.9832C568.488 46.8984 568.268 46.8546 568.045 46.8546C567.823 46.8546 567.602 46.8984 567.397 46.9832C567.192 47.0681 567.007 47.1924 566.851 47.3489C566.696 47.5053 566.574 47.6907 566.492 47.8942C566.411 48.0976 566.372 48.3151 566.377 48.5336C566.372 48.7522 566.411 48.9696 566.492 49.1731C566.574 49.3765 566.696 49.5619 566.851 49.7184C567.007 49.8748 567.192 49.9991 567.397 50.084C567.602 50.1689 567.823 50.2126 568.045 50.2126C568.268 50.2126 568.488 50.1689 568.693 50.084C568.898 49.9991 569.084 49.8748 569.239 49.7184C569.394 49.5619 569.516 49.3765 569.598 49.1731C569.679 48.9696 569.719 48.7522 569.713 48.5336ZM568.564 49.4668C568.514 49.4079 568.48 49.3363 568.469 49.2599L568.401 48.9579C568.343 48.7509 568.237 48.6945 568.018 48.6945H567.619V49.4668H567.291V47.544H568.136C568.58 47.544 568.81 47.7321 568.81 48.0905C568.812 48.2122 568.767 48.33 568.684 48.4199C568.6 48.5098 568.485 48.565 568.361 48.5741C568.448 48.5807 568.529 48.6158 568.592 48.6735C568.655 48.7312 568.697 48.8082 568.71 48.892L568.797 49.2411C568.814 49.3253 568.854 49.4034 568.913 49.4668H568.564ZM568.091 47.798H567.619V48.4396H568.091C568.352 48.4396 568.474 48.3257 568.474 48.1093C568.474 47.893 568.352 47.798 568.091 47.798Z" fill="white"/>
<path d="M218.85 184.312V195H221.138V184.312H218.85ZM228.302 195V186.216H230.318V184.312H223.982V186.216H225.998V195H228.302ZM235.689 185.368C235.689 184.376 235.161 183.592 234.201 183.592C233.545 183.592 232.969 184.04 232.969 184.84C232.969 185.544 233.449 185.96 234.009 185.96C234.121 185.96 234.249 185.928 234.313 185.896C234.329 185.944 234.345 185.976 234.345 186.04C234.345 186.504 233.945 186.888 233.145 186.904V187.848C234.745 187.848 235.689 186.792 235.689 185.368ZM241.178 195.128C242.97 195.128 244.33 193.944 244.33 192.136C244.33 188.984 240.442 188.568 240.442 186.936C240.442 186.36 240.778 185.992 241.322 185.992C241.962 185.992 242.298 186.68 242.298 187.592L244.266 187.16C244.202 185.304 243.146 184.184 241.306 184.184C239.482 184.184 238.218 185.416 238.218 187.16C238.218 190.216 242.074 190.552 242.074 192.328C242.074 192.936 241.738 193.304 241.162 193.304C240.442 193.304 239.978 192.568 240.01 191.432L238.042 191.976C238.074 193.928 239.338 195.128 241.178 195.128ZM254.169 195V190.76H256.569V188.92H254.169V186.216H256.937V184.312H251.897V195H254.169ZM259.85 184.312V195H262.138V184.312H259.85ZM269.798 190.12H269.734L267.51 184.312H265.35V195H267.446V188.952H267.494L269.894 195H271.894V184.312H269.798V190.12ZM278.492 189.336V191.032H279.436V191.496C279.436 192.632 279.068 193.176 278.428 193.176C277.548 193.176 277.196 191.96 277.196 189.784C277.196 187.432 277.612 186.168 278.412 186.168C279.116 186.168 279.308 187.032 279.356 187.992L281.516 187.448C281.356 185.512 280.364 184.184 278.46 184.184C276.188 184.184 274.828 186.184 274.828 189.784C274.828 193.112 275.996 195.128 277.948 195.128C278.86 195.128 279.532 194.648 279.82 193.896L280.044 195H281.596V189.336H278.492ZM289.926 193.096H286.966V190.488H289.462V188.68H286.966V186.216H289.926V184.312H284.71V195H289.926V193.096ZM297.12 187.672C297.12 188.648 296.864 189.176 295.936 189.176H295.232V186.168H295.92C296.864 186.168 297.12 186.696 297.12 187.672ZM299.76 195C299.536 194.664 299.408 194.264 299.344 193.784L299.056 191.688C298.912 190.728 298.4 190.184 297.696 190.024V189.992C298.624 189.784 299.472 188.904 299.472 187.416C299.472 185.432 298.432 184.312 296.208 184.312H292.96V195H295.232V190.92H295.824C296.4 190.92 296.688 191.176 296.8 191.88L297.024 193.848C297.104 194.344 297.2 194.728 297.36 195H299.76ZM307.225 184.312V195H312.281V193.096H309.513V184.312H307.225ZM315.163 184.312V195H317.451V184.312H315.163ZM320.391 189.64C320.391 193.24 321.671 195.128 323.895 195.128C325.767 195.128 326.727 193.768 326.887 191.832L324.791 191.288C324.743 192.248 324.551 193.144 323.879 193.144C323.127 193.144 322.759 191.976 322.759 189.64C322.759 187.32 323.111 186.168 323.863 186.168C324.551 186.168 324.743 187.032 324.775 187.992L326.871 187.448C326.711 185.512 325.751 184.184 323.895 184.184C321.671 184.184 320.391 186.056 320.391 189.64ZM336.59 195L334.446 189.512L336.446 184.312H333.982L332.43 188.616H331.998V184.312H329.71V195H331.998V190.568H332.43L334.094 195H336.59ZM339.21 184.312V195H341.498V184.312H339.21ZM349.158 190.12H349.094L346.87 184.312H344.71V195H346.806V188.952H346.854L349.254 195H351.254V184.312H349.158V190.12ZM356.924 185.368C356.924 184.376 356.396 183.592 355.436 183.592C354.78 183.592 354.204 184.04 354.204 184.84C354.204 185.544 354.684 185.96 355.244 185.96C355.356 185.96 355.484 185.928 355.548 185.896C355.564 185.944 355.58 185.976 355.58 186.04C355.58 186.504 355.18 186.888 354.38 186.904V187.848C355.98 187.848 356.924 186.792 356.924 185.368ZM367.992 189.336V191.032H368.936V191.496C368.936 192.632 368.568 193.176 367.928 193.176C367.048 193.176 366.696 191.96 366.696 189.784C366.696 187.432 367.112 186.168 367.912 186.168C368.616 186.168 368.808 187.032 368.856 187.992L371.016 187.448C370.856 185.512 369.864 184.184 367.96 184.184C365.688 184.184 364.328 186.184 364.328 189.784C364.328 193.112 365.496 195.128 367.448 195.128C368.36 195.128 369.032 194.648 369.32 193.896L369.544 195H371.096V189.336H367.992ZM377.474 184.184C375.202 184.184 373.938 186.088 373.938 189.656C373.938 193.224 375.202 195.128 377.474 195.128C379.762 195.128 381.026 193.224 381.026 189.656C381.026 186.088 379.762 184.184 377.474 184.184ZM377.474 186.104C378.322 186.104 378.642 187.208 378.642 189.656C378.642 192.104 378.322 193.208 377.474 193.208C376.626 193.208 376.306 192.104 376.306 189.656C376.306 187.208 376.626 186.104 377.474 186.104ZM387.239 184.184C384.967 184.184 383.703 186.088 383.703 189.656C383.703 193.224 384.967 195.128 387.239 195.128C389.527 195.128 390.791 193.224 390.791 189.656C390.791 186.088 389.527 184.184 387.239 184.184ZM387.239 186.104C388.087 186.104 388.407 187.208 388.407 189.656C388.407 192.104 388.087 193.208 387.239 193.208C386.391 193.208 386.071 192.104 386.071 189.656C386.071 187.208 386.391 186.104 387.239 186.104ZM393.725 195H396.493C399.117 195 400.445 193.176 400.445 189.672C400.445 186.152 399.117 184.312 396.493 184.312H393.725V195ZM395.997 186.2H396.477C397.629 186.2 398.045 187.24 398.045 189.672C398.045 192.088 397.629 193.112 396.477 193.112H395.997V186.2Z" fill="white"/>
<path d="M55 57.92V60.04H56.18V60.62C56.18 62.04 55.72 62.72 54.92 62.72C53.82 62.72 53.38 61.2 53.38 58.48C53.38 55.54 53.9 53.96 54.9 53.96C55.78 53.96 56.02 55.04 56.08 56.24L58.78 55.56C58.58 53.14 57.34 51.48 54.96 51.48C52.12 51.48 50.42 53.98 50.42 58.48C50.42 62.64 51.88 65.16 54.32 65.16C55.46 65.16 56.3 64.56 56.66 63.62L56.94 65H58.88V57.92H55ZM61.2717 51.64V65H64.1317V51.64H61.2717ZM69.4867 65V59.7H72.4867V57.4H69.4867V54.02H72.9467V51.64H66.6467V65H69.4867ZM80.0281 65V54.02H82.5481V51.64H74.6281V54.02H77.1481V65H80.0281ZM88.6622 58.3C88.6622 62.8 90.2622 65.16 93.0422 65.16C95.3822 65.16 96.5822 63.46 96.7822 61.04L94.1622 60.36C94.1022 61.56 93.8622 62.68 93.0222 62.68C92.0822 62.68 91.6222 61.22 91.6222 58.3C91.6222 55.4 92.0622 53.96 93.0022 53.96C93.8622 53.96 94.1022 55.04 94.1422 56.24L96.7622 55.56C96.5622 53.14 95.3622 51.48 93.0422 51.48C90.2622 51.48 88.6622 53.82 88.6622 58.3ZM102.475 54.82H102.535L103.415 59.84H101.615L102.475 54.82ZM104.315 65H107.095L104.355 51.64H100.755L98.015 65H100.715L101.235 62H103.795L104.315 65ZM114.19 55.84C114.19 57.06 113.87 57.72 112.71 57.72H111.83V53.96H112.69C113.87 53.96 114.19 54.62 114.19 55.84ZM117.49 65C117.21 64.58 117.05 64.08 116.97 63.48L116.61 60.86C116.43 59.66 115.79 58.98 114.91 58.78V58.74C116.07 58.48 117.13 57.38 117.13 55.52C117.13 53.04 115.83 51.64 113.05 51.64H108.99V65H111.83V59.9H112.57C113.29 59.9 113.65 60.22 113.79 61.1L114.07 63.56C114.17 64.18 114.29 64.66 114.49 65H117.49ZM119.405 65H122.865C126.145 65 127.805 62.72 127.805 58.34C127.805 53.94 126.145 51.64 122.865 51.64H119.405V65ZM122.245 54H122.845C124.285 54 124.805 55.3 124.805 58.34C124.805 61.36 124.285 62.64 122.845 62.64H122.245V54Z" fill="white"/>
</g>
<defs>
<filter id="filter0_d" x="0" y="0" width="620" height="388" filterUnits="userSpaceOnUse" color-interpolation-filters="sRGB">
<feFlood flood-opacity="0" result="BackgroundImageFix"/>
<feColorMatrix in="SourceAlpha" type="matrix" values="0 0 0 0 0 0 0 0 0 0 0 0 0 0 0 0 0 0 127 0"/>
<feOffset dy="5"/>
<feGaussianBlur stdDeviation="10"/>
<feColorMatrix type="matrix" values="0 0 0 0 0 0 0 0 0 0 0 0 0 0 0 0 0 0 0.15 0"/>
<feBlend mode="normal" in2="BackgroundImageFix" result="effect1_dropShadow"/>
<feBlend mode="normal" in="SourceGraphic" in2="effect1_dropShadow" result="shape"/>
</filter>
</defs>
</svg>
